# xmcd
#
# Track frame offsets:
# 150
# 23025
# 46695
# 65460
# 76612
# 88807
# 109950
# 133625
# 147525
# 162652
# 181687
# 199350
# 210450
# 220975
# 234025
# 244525
# 256975
# 271525
# 281912
# 296050
#
# Disc length: 4110 seconds
#
#
# Revision: 2
# Processed by: cddbd v1.5.2PL0 Copyright (c) Steve Scherf et al.
# Submitted via: FreeRIP 2.96 
#
DISCID=21100c14
DTITLE=Various Artist - Country's 20 Classic Gospel Songs of the Century
DYEAR=2004
DGENRE=Gospel
TTITLE0=Allison Krauss and The Cox Family - I Know Who Holds Tommorow
TTITLE1=Vince Gill - Go Rest High On That Mountain
TTITLE2=Emmylou Harris, Linda Ronstad and Dolly Parton - Farther Along
TTITLE3=Ricky Skaggs - Children Go
TTITLE4=Tammy Wynette - Precious Memories
TTITLE5=Willie Nelson - Uncloudy Day
TTITLE6=The Statley Brothers - Amazing Grace
TTITLE7=Dolly Parton - Coat of Many Colors
TTITLE8=Merle Haggard - Precious Lord, Take My Hand - Jesus Hold My Right Hand
TTITLE9=Connie Smith - How Great Thou Art
TTITLE10=Johnny Cash and The Carter Family - Were You There (When  They Crucified My Lord)
TTITLE11=Elvis Presley - Crying In the Chapel
TTITLE12=Ferlin Husky - Wings of A Dove
TTITLE13=Patsy Cline - Life's Railway to Heaven
TTITLE14=Jim Reeves - In the Garden
TTITLE15=Tennessee Ernie Ford - The Old Rugged Cross
TTITLE16=Red Foley With The Sunshine Boys - Peace In the Valley
TTITLE17=The Stanley Brothers and The Clinch Mountain Boys - Angel Band
TTITLE18=The Carter Family - Can the Circle Be Unbroken
TTITLE19=Hank Williams Sr. - I Saw the Light
EXTD=
EXTT0=
EXTT1=
EXTT2=
EXTT3=
EXTT4=
EXTT5=
EXTT6=
EXTT7=
EXTT8=
EXTT9=
EXTT10=
EXTT11=
EXTT12=
EXTT13=
EXTT14=
EXTT15=
EXTT16=
EXTT17=
EXTT18=
EXTT19=
PLAYORDER=
